<svg width="61" height="61" viewBox="0 0 61 61" fill="none" xmlns="http://www.w3.org/2000/svg">
<path d="M30.24 0C13.56 0 0 13.57 0 30.24C0 46.91 13.57 60.48 30.24 60.48C46.91 60.48 60.48 46.91 60.48 30.24C60.48 13.57 46.91 0 30.24 0ZM49 49C44.2 53.8 37.56 56.77 30.23 56.77C15.57 56.77 3.69 44.89 3.69 30.23C3.69 22.9 6.66 16.27 11.46 11.47C16.26 6.67 22.9 3.7 30.23 3.7C37.56 3.7 44.19 6.67 49 11.47C53.8 16.27 56.77 22.91 56.77 30.23C56.77 37.55 53.8 44.19 49 49Z" fill="#965BA5"/>
<path d="M30.2395 15.2995C35.1095 15.2995 35.6795 15.3195 37.5995 15.4095C39.3795 15.4895 40.3395 15.7895 40.9795 16.0395C41.8295 16.3695 42.4395 16.7695 43.0795 17.3995C43.7195 18.0395 44.1095 18.6395 44.4395 19.4995C44.6895 20.1395 44.9895 21.1095 45.0695 22.8795C45.1595 24.7995 45.1795 25.3795 45.1795 30.2395C45.1795 35.0995 45.1595 35.6795 45.0695 37.5995C44.9895 39.3795 44.6895 40.3395 44.4395 40.9795C44.1095 41.8295 43.7095 42.4395 43.0795 43.0795C42.4395 43.7195 41.8395 44.1095 40.9795 44.4395C40.3395 44.6895 39.3695 44.9895 37.5995 45.0695C35.6795 45.1595 35.0995 45.1795 30.2395 45.1795C25.3795 45.1795 24.7995 45.1595 22.8795 45.0695C21.0995 44.9895 20.1395 44.6895 19.4995 44.4395C18.6495 44.1095 18.0395 43.7095 17.3995 43.0795C16.7595 42.4395 16.3695 41.8395 16.0395 40.9795C15.7895 40.3395 15.4895 39.3695 15.4095 37.5995C15.3195 35.6795 15.2995 35.0995 15.2995 30.2395C15.2995 25.3795 15.3195 24.7995 15.4095 22.8795C15.4895 21.0995 15.7895 20.1395 16.0395 19.4995C16.3695 18.6495 16.7695 18.0395 17.3995 17.3995C18.0295 16.7595 18.6395 16.3695 19.4995 16.0395C20.1395 15.7895 21.1095 15.4895 22.8795 15.4095C24.7995 15.3195 25.3795 15.2995 30.2395 15.2995ZM30.2395 12.0195C25.2895 12.0195 24.6695 12.0395 22.7295 12.1295C20.7895 12.2195 19.4695 12.5295 18.3095 12.9795C17.1095 13.4495 16.0995 14.0695 15.0795 15.0795C14.0695 16.0895 13.4395 17.1095 12.9795 18.3095C12.5295 19.4695 12.2195 20.7895 12.1295 22.7295C12.0395 24.6695 12.0195 25.2895 12.0195 30.2395C12.0195 35.1895 12.0395 35.8095 12.1295 37.7495C12.2195 39.6895 12.5295 41.0095 12.9795 42.1695C13.4495 43.3695 14.0695 44.3795 15.0795 45.3995C16.0895 46.4095 17.1095 47.0395 18.3095 47.4995C19.4695 47.9495 20.7895 48.2595 22.7295 48.3495C24.6695 48.4395 25.2895 48.4595 30.2395 48.4595C35.1895 48.4595 35.8095 48.4395 37.7495 48.3495C39.6895 48.2595 41.0095 47.9495 42.1695 47.4995C43.3695 47.0295 44.3795 46.4095 45.3995 45.3995C46.4095 44.3895 47.0395 43.3695 47.4995 42.1695C47.9495 41.0095 48.2595 39.6895 48.3495 37.7495C48.4395 35.8095 48.4595 35.1895 48.4595 30.2395C48.4595 25.2895 48.4395 24.6695 48.3495 22.7295C48.2595 20.7895 47.9495 19.4695 47.4995 18.3095C47.0295 17.1095 46.4095 16.0995 45.3995 15.0795C44.3895 14.0695 43.3695 13.4395 42.1695 12.9795C41.0095 12.5295 39.6895 12.2195 37.7495 12.1295C35.8095 12.0395 35.1895 12.0195 30.2395 12.0195Z" fill="#965BA5"/>
<path d="M30.2399 20.8789C25.0699 20.8789 20.8799 25.0689 20.8799 30.2389C20.8799 35.4089 25.0699 39.5989 30.2399 39.5989C35.4099 39.5989 39.5999 35.4089 39.5999 30.2389C39.5999 25.0689 35.4099 20.8789 30.2399 20.8789ZM30.2399 36.3089C26.8899 36.3089 24.1699 33.5889 24.1699 30.2389C24.1699 26.8889 26.8899 24.1689 30.2399 24.1689C33.5899 24.1689 36.3099 26.8889 36.3099 30.2389C36.3099 33.5889 33.5899 36.3089 30.2399 36.3089Z" fill="#965BA5"/>
<path d="M42.0853 21.0153C42.3631 19.8382 41.6341 18.6586 40.4569 18.3808C39.2797 18.103 38.1002 18.832 37.8224 20.0092C37.5446 21.1863 38.2736 22.3659 39.4508 22.6437C40.6279 22.9215 41.8074 22.1925 42.0853 21.0153Z" fill="#965BA5"/>
<path d="M30.24 0C13.56 0 0 13.57 0 30.24C0 46.91 13.57 60.48 30.24 60.48C46.91 60.48 60.48 46.91 60.48 30.24C60.48 13.57 46.91 0 30.24 0ZM49 49C44.2 53.8 37.56 56.77 30.23 56.77C15.57 56.77 3.69 44.89 3.69 30.23C3.69 22.9 6.66 16.27 11.46 11.47C16.26 6.67 22.9 3.7 30.23 3.7C37.56 3.7 44.19 6.67 49 11.47C53.8 16.27 56.77 22.91 56.77 30.23C56.77 37.55 53.8 44.19 49 49Z" fill="#965BA5"/>
</svg>
