<?xml version="1.0" encoding="UTF-8"?>
<svg id="Layer_1" data-name="Layer 1" xmlns="http://www.w3.org/2000/svg" xmlns:xlink="http://www.w3.org/1999/xlink" viewBox="0 0 209 42.01">
  <defs>
    <style>
      .cls-1 {
        fill: none;
      }

      .cls-2 {
        fill: #965ba5;
      }

      .cls-3 {
        fill: #171717;
      }

      .cls-4 {
        clip-path: url(#clippath);
      }
    </style>
    <clipPath id="clippath">
      <rect class="cls-1" width="209" height="42"/>
    </clipPath>
  </defs>
  <g class="cls-4">
    <g>
      <path class="cls-3" d="M57.21,29.91v3.22c0,.45.11.79.33,1.01.22.22.53.33.93.33s.69-.11.91-.33c.22-.22.34-.55.34-1.01v-3.22h.66v3.21c0,.42-.09.78-.26,1.07-.17.29-.4.5-.69.64-.29.14-.61.21-.97.21s-.69-.07-.98-.21c-.29-.14-.52-.36-.69-.64-.17-.29-.25-.65-.25-1.07v-3.21h.66ZM63.44,30.93c.49,0,.88.15,1.18.45.3.29.45.72.45,1.27v2.36h-.66v-2.26c0-.4-.1-.7-.3-.91-.2-.21-.47-.32-.82-.32s-.63.11-.84.33c-.2.22-.31.54-.31.96v2.21h-.66v-4h.66v.57c.13-.2.31-.36.53-.47.23-.11.48-.17.75-.17ZM69.75,30.93c.35,0,.65.08.91.23.26.15.46.34.58.57v-.73h.67v4.09c0,.36-.08.69-.23.97-.16.29-.38.51-.67.67-.29.16-.62.24-1.01.24-.53,0-.96-.12-1.31-.37-.35-.25-.56-.59-.62-1.01h.66c.07.24.22.44.45.58.23.15.5.23.82.23.36,0,.66-.11.89-.34.23-.23.35-.55.35-.96v-.84c-.13.23-.33.43-.58.58-.26.16-.56.23-.91.23s-.68-.09-.97-.26c-.29-.18-.51-.42-.68-.74-.17-.32-.25-.68-.25-1.08s.08-.77.25-1.07c.17-.31.39-.55.68-.72.29-.17.62-.26.97-.26ZM71.24,32.99c0-.3-.06-.56-.18-.79-.12-.22-.29-.39-.5-.51-.2-.12-.43-.18-.68-.18s-.47.06-.68.18-.37.29-.49.51c-.12.22-.18.49-.18.79s.06.57.18.8c.12.22.28.4.49.52.2.12.43.18.68.18s.47-.06.68-.18c.21-.12.37-.29.5-.52.12-.23.18-.49.18-.8ZM76.69,32.85c0,.13,0,.26-.02.4h-3.2c.02.39.16.7.4.93.25.22.55.33.9.33.29,0,.53-.07.72-.2.19-.14.33-.32.41-.54h.72c-.11.38-.32.7-.64.94-.32.24-.72.36-1.2.36-.38,0-.72-.09-1.02-.26-.3-.17-.53-.41-.7-.72-.17-.32-.26-.68-.26-1.1s.08-.78.25-1.09c.17-.31.4-.55.69-.72.3-.17.65-.26,1.04-.26s.72.08,1.01.25.52.39.67.69c.16.29.24.61.24.98ZM76,32.71c0-.25-.06-.47-.17-.65-.11-.18-.27-.32-.46-.42-.19-.1-.4-.15-.64-.15-.34,0-.62.11-.86.32-.23.21-.37.51-.4.89h2.53ZM78.98,35.07c-.31,0-.58-.05-.82-.15-.24-.11-.44-.25-.58-.44-.14-.19-.22-.41-.23-.65h.69c.02.2.11.36.28.49.17.13.39.19.66.19.25,0,.45-.06.6-.17.15-.11.22-.25.22-.42s-.08-.3-.23-.39c-.16-.09-.4-.17-.72-.26-.3-.08-.54-.16-.73-.23-.19-.08-.35-.2-.48-.36-.13-.16-.2-.37-.2-.63,0-.2.06-.39.18-.56.12-.17.29-.3.52-.4.22-.1.48-.15.77-.15.44,0,.8.11,1.07.34.27.22.42.53.44.92h-.66c-.01-.21-.1-.38-.26-.5-.15-.13-.36-.19-.61-.19-.24,0-.43.05-.57.15-.14.1-.21.24-.21.4,0,.13.04.24.12.33.09.08.19.15.32.2.13.05.31.1.54.17.29.08.52.16.7.23.18.07.33.18.46.34.13.15.2.35.2.59,0,.22-.06.42-.18.59-.12.18-.29.31-.52.42-.22.1-.47.15-.76.15ZM82.19,31.55v2.36c0,.19.04.33.12.42.08.08.23.12.43.12h.49v.56h-.6c-.37,0-.65-.09-.83-.26-.18-.17-.28-.45-.28-.84v-2.36h-.52v-.55h.52v-1.01h.66v1.01h1.04v.55h-1.04ZM87.69,32.85c0,.13,0,.26-.02.4h-3.2c.02.39.16.7.4.93.25.22.55.33.9.33.29,0,.53-.07.72-.2.19-.14.33-.32.41-.54h.72c-.11.38-.32.7-.64.94-.32.24-.72.36-1.2.36-.38,0-.72-.09-1.02-.26-.3-.17-.53-.41-.7-.72-.17-.32-.26-.68-.26-1.1s.08-.78.25-1.09c.17-.31.4-.55.69-.72.3-.17.65-.26,1.04-.26s.72.08,1.01.25.52.39.67.69c.16.29.24.61.24.98ZM87,32.71c0-.25-.06-.47-.17-.65-.11-.18-.27-.32-.46-.42-.19-.1-.4-.15-.64-.15-.34,0-.62.11-.86.32-.23.21-.37.51-.4.89h2.53ZM91.93,35.07c-.31,0-.58-.05-.82-.15-.24-.11-.44-.25-.58-.44-.14-.19-.22-.41-.23-.65h.69c.02.2.11.36.28.49.17.13.39.19.66.19.25,0,.45-.06.6-.17.15-.11.22-.25.22-.42s-.08-.3-.23-.39c-.16-.09-.4-.17-.72-.26-.3-.08-.54-.16-.73-.23-.19-.08-.35-.2-.48-.36-.13-.16-.2-.37-.2-.63,0-.2.06-.39.18-.56.12-.17.29-.3.52-.4.22-.1.48-.15.77-.15.44,0,.8.11,1.07.34.27.22.42.53.44.92h-.66c-.01-.21-.1-.38-.26-.5-.15-.13-.36-.19-.61-.19-.24,0-.43.05-.57.15-.14.1-.21.24-.21.4,0,.13.04.24.12.33.09.08.19.15.32.2.13.05.31.1.54.17.29.08.52.16.7.23.18.07.33.18.46.34.13.15.2.35.2.59,0,.22-.06.42-.18.59-.12.18-.29.31-.52.42-.22.1-.47.15-.76.15ZM94.67,30.35c-.13,0-.23-.04-.32-.13s-.13-.19-.13-.32.04-.23.13-.32c.09-.09.19-.13.32-.13s.22.04.31.13c.09.09.13.19.13.32s-.04.23-.13.32c-.08.09-.18.13-.31.13ZM94.99,31v4h-.66v-4h.66ZM100.93,30.93c.31,0,.59.07.83.2.24.13.44.32.58.58.14.26.21.57.21.94v2.36h-.66v-2.26c0-.4-.1-.7-.3-.91-.19-.21-.46-.32-.79-.32s-.62.11-.83.34c-.2.22-.31.54-.31.96v2.2h-.66v-2.26c0-.4-.1-.7-.3-.91-.19-.21-.46-.32-.8-.32s-.62.11-.82.34c-.2.22-.31.54-.31.96v2.2h-.66v-4h.66v.58c.13-.21.31-.37.53-.48.22-.11.47-.17.74-.17.34,0,.63.08.89.23.26.15.45.37.58.66.11-.28.3-.5.56-.66.26-.16.54-.23.86-.23ZM104.31,31.74c.13-.23.33-.42.58-.57.26-.16.57-.23.91-.23s.68.09.96.26c.29.17.52.41.69.72.16.31.25.66.25,1.07s-.08.76-.25,1.08c-.17.32-.39.56-.69.74-.29.18-.61.26-.96.26s-.64-.08-.9-.23c-.26-.16-.46-.35-.59-.58v2.64h-.67v-5.9h.67v.74ZM107.02,32.99c0-.3-.06-.56-.18-.79-.12-.22-.29-.39-.5-.51-.2-.12-.43-.18-.68-.18s-.47.06-.68.18c-.21.12-.37.29-.5.52-.12.22-.18.48-.18.78s.06.57.18.8c.13.22.29.4.5.52.21.12.43.18.68.18s.47-.06.68-.18c.21-.12.38-.29.5-.52.12-.23.18-.5.18-.8ZM109.24,29.6v5.4h-.66v-5.4h.66ZM114.02,32.85c0,.13,0,.26-.02.4h-3.2c.02.39.16.7.4.93.25.22.55.33.9.33.29,0,.53-.07.72-.2.19-.14.33-.32.41-.54h.72c-.11.38-.32.7-.64.94-.32.24-.72.36-1.2.36-.38,0-.72-.09-1.02-.26-.3-.17-.53-.41-.7-.72-.17-.32-.25-.68-.25-1.1s.08-.78.25-1.09c.17-.31.4-.55.69-.72.3-.17.65-.26,1.04-.26s.72.08,1.01.25.51.39.67.69c.16.29.24.61.24.98ZM113.33,32.71c0-.25-.06-.47-.17-.65-.11-.18-.26-.32-.46-.42-.19-.1-.4-.15-.64-.15-.34,0-.62.11-.86.32-.23.21-.37.51-.4.89h2.53ZM117.53,34.08l-.82,1.96h-.45l.53-1.96h.73ZM123.79,31v4h-.66v-.59c-.13.2-.3.37-.53.48-.22.11-.47.17-.74.17-.31,0-.59-.06-.84-.19-.25-.13-.44-.33-.59-.58-.14-.26-.21-.57-.21-.94v-2.34h.66v2.26c0,.39.1.7.3.91.2.21.47.31.82.31s.64-.11.84-.33c.2-.22.31-.54.31-.96v-2.2h.66ZM126.86,30.93c.49,0,.88.15,1.18.45.3.29.45.72.45,1.27v2.36h-.66v-2.26c0-.4-.1-.7-.3-.91-.2-.21-.47-.32-.82-.32s-.63.11-.84.33c-.21.22-.31.54-.31.96v2.21h-.66v-4h.66v.57c.13-.2.31-.36.53-.47.23-.11.48-.17.75-.17ZM131.87,30.35c-.13,0-.23-.04-.32-.13-.09-.09-.13-.19-.13-.32s.04-.23.13-.32c.09-.09.19-.13.32-.13s.22.04.31.13c.09.09.13.19.13.32s-.04.23-.13.32c-.08.09-.18.13-.31.13ZM132.19,31v4h-.66v-4h.66ZM138.13,30.93c.31,0,.59.07.83.2.24.13.44.32.58.58.14.26.21.57.21.94v2.36h-.66v-2.26c0-.4-.1-.7-.3-.91-.2-.21-.46-.32-.8-.32s-.62.11-.82.34c-.2.22-.31.54-.31.96v2.2h-.66v-2.26c0-.4-.1-.7-.3-.91-.19-.21-.46-.32-.8-.32s-.62.11-.83.34c-.2.22-.31.54-.31.96v2.2h-.66v-4h.66v.58c.13-.21.31-.37.53-.48.22-.11.47-.17.74-.17.34,0,.63.08.89.23.26.15.45.37.58.66.11-.28.3-.5.55-.66.26-.16.54-.23.86-.23ZM141.5,31.74c.13-.23.33-.42.58-.57.26-.16.57-.23.91-.23s.68.09.96.26c.29.17.52.41.69.72.16.31.25.66.25,1.07s-.08.76-.25,1.08c-.17.32-.4.56-.69.74-.29.18-.61.26-.96.26s-.64-.08-.91-.23c-.26-.16-.45-.35-.59-.58v2.64h-.66v-5.9h.66v.74ZM144.22,32.99c0-.3-.06-.56-.18-.79-.12-.22-.29-.39-.5-.51-.2-.12-.43-.18-.68-.18s-.47.06-.68.18c-.2.12-.37.29-.5.52-.12.22-.18.48-.18.78s.06.57.18.8c.13.22.29.4.5.52.21.12.44.18.68.18s.48-.06.68-.18c.21-.12.38-.29.5-.52.12-.23.18-.5.18-.8ZM145.52,32.99c0-.41.08-.77.25-1.07.17-.31.39-.55.68-.72.29-.17.62-.26.97-.26s.65.08.91.23c.26.15.45.34.58.57v-.73h.67v4h-.67v-.74c-.13.23-.33.43-.59.58-.26.15-.56.23-.9.23s-.68-.09-.96-.26c-.29-.18-.51-.42-.68-.74-.16-.32-.25-.68-.25-1.08ZM148.91,32.99c0-.3-.06-.56-.18-.79-.12-.22-.29-.39-.5-.51-.2-.12-.43-.18-.68-.18s-.47.06-.68.18c-.21.12-.37.29-.49.51-.12.22-.18.49-.18.79s.06.57.18.8c.12.22.29.4.49.52.2.12.43.18.68.18s.48-.06.68-.18c.21-.12.38-.29.5-.52.12-.23.18-.49.18-.8ZM150.46,32.99c0-.41.08-.77.25-1.08.17-.31.4-.55.69-.72.3-.17.63-.26,1.01-.26.49,0,.9.12,1.21.36.32.24.53.57.63.99h-.71c-.07-.24-.2-.44-.4-.58-.19-.14-.44-.21-.73-.21-.38,0-.69.13-.92.39-.23.26-.35.63-.35,1.1s.12.85.35,1.12c.23.26.54.39.92.39.29,0,.54-.07.73-.2.2-.14.33-.33.4-.58h.71c-.11.41-.32.74-.64.99-.32.24-.72.37-1.21.37-.38,0-.72-.09-1.01-.26-.29-.17-.52-.41-.69-.72-.16-.31-.25-.68-.25-1.1ZM155.95,31.55v2.36c0,.19.04.33.12.42.08.08.23.12.43.12h.49v.56h-.6c-.37,0-.65-.09-.83-.26s-.28-.45-.28-.84v-2.36h-.52v-.55h.52v-1.01h.66v1.01h1.04v.55h-1.04ZM159.5,32.99c0-.41.08-.77.25-1.07.16-.31.39-.55.68-.72.29-.17.62-.26.98-.26.31,0,.6.07.87.22.27.14.47.33.61.56v-2.12h.67v5.4h-.67v-.75c-.13.24-.33.44-.58.59-.26.15-.56.23-.9.23s-.68-.09-.97-.26c-.29-.18-.51-.42-.68-.74-.17-.32-.25-.68-.25-1.08ZM162.88,32.99c0-.3-.06-.56-.18-.79-.12-.22-.29-.39-.5-.51-.2-.12-.43-.18-.68-.18s-.47.06-.68.18c-.2.12-.37.29-.49.51-.12.22-.18.49-.18.79s.06.57.18.8c.12.22.29.4.49.52.2.12.43.18.68.18s.48-.06.68-.18c.21-.12.38-.29.5-.52.12-.23.18-.49.18-.8ZM168.23,31v4h-.66v-.59c-.13.2-.31.37-.53.48-.22.11-.47.17-.74.17-.31,0-.59-.06-.84-.19-.25-.13-.45-.33-.59-.58-.14-.26-.21-.57-.21-.94v-2.34h.66v2.26c0,.39.1.7.3.91.2.21.47.31.82.31s.64-.11.84-.33c.2-.22.31-.54.31-.96v-2.2h.66ZM170.01,31.65c.12-.23.28-.41.5-.53.22-.13.48-.19.8-.19v.69h-.17c-.75,0-1.12.4-1.12,1.21v2.18h-.66v-4h.66v.65ZM171.82,32.99c0-.41.08-.77.25-1.07.16-.31.39-.55.68-.72.29-.17.61-.26.97-.26s.65.08.91.23.45.34.58.57v-.73h.67v4h-.67v-.74c-.13.23-.33.43-.59.58-.26.15-.56.23-.9.23s-.68-.09-.96-.26c-.29-.18-.51-.42-.68-.74-.17-.32-.25-.68-.25-1.08ZM175.21,32.99c0-.3-.06-.56-.18-.79-.12-.22-.29-.39-.5-.51-.21-.12-.43-.18-.68-.18s-.47.06-.68.18c-.2.12-.37.29-.49.51-.12.22-.18.49-.18.79s.06.57.18.8c.12.22.29.4.49.52.2.12.43.18.68.18s.47-.06.68-.18c.21-.12.38-.29.5-.52.12-.23.18-.49.18-.8ZM177.67,31.74c.14-.24.34-.43.6-.58s.56-.23.9-.23c.36,0,.68.09.97.26.29.17.51.41.68.72.17.31.25.66.25,1.07s-.08.76-.25,1.08c-.17.32-.39.56-.69.74-.29.18-.61.26-.96.26s-.65-.08-.91-.23c-.26-.15-.45-.34-.58-.58v.74h-.66v-5.4h.66v2.15ZM180.38,32.99c0-.3-.06-.56-.18-.79-.12-.22-.29-.39-.5-.51-.2-.12-.43-.18-.68-.18s-.47.06-.68.18c-.2.12-.37.29-.5.52-.12.22-.18.48-.18.78s.06.57.18.8c.13.22.29.4.5.52.21.12.44.18.68.18s.48-.06.68-.18c.21-.12.38-.29.5-.52.12-.23.18-.5.18-.8ZM182.6,29.6v5.4h-.66v-5.4h.66ZM187.38,32.85c0,.13,0,.26-.02.4h-3.2c.03.39.16.7.4.93.25.22.55.33.9.33.29,0,.53-.07.71-.2.2-.14.33-.32.41-.54h.71c-.11.38-.32.7-.64.94-.32.24-.72.36-1.2.36-.38,0-.72-.09-1.02-.26-.3-.17-.53-.41-.7-.72-.17-.32-.26-.68-.26-1.1s.08-.78.25-1.09c.16-.31.4-.55.69-.72.3-.17.65-.26,1.04-.26s.71.08,1.01.25.52.39.67.69c.16.29.24.61.24.98ZM186.7,32.71c0-.25-.06-.47-.17-.65-.11-.18-.27-.32-.46-.42-.19-.1-.4-.15-.63-.15-.34,0-.62.11-.86.32-.23.21-.37.51-.4.89h2.52Z"/>
      <path class="cls-3" d="M55.42,24.73V5.35h15.3c.74,0,1.4.18,2,.54.6.36,1.08.84,1.45,1.44.37.6.55,1.27.55,2.01v11.42c0,.71-.18,1.39-.55,1.99-.37.61-.84,1.09-1.45,1.45-.6.36-1.26.54-2,.54h-15.3ZM70.5,20.54v-10.98h-10.96v10.98h10.96Z"/>
      <path class="cls-3" d="M79.64,24.19c-.61-.36-1.09-.84-1.45-1.45-.36-.61-.54-1.28-.54-1.99V5.35h4.15v15.18h10.93V5.35h4.21v15.4c0,.71-.18,1.39-.55,1.99-.37.61-.84,1.09-1.45,1.45-.6.36-1.25.54-1.97.54h-11.36c-.71,0-1.38-.18-1.98-.54h0Z"/>
      <path class="cls-3" d="M195.87,24.73v-7.24l-8.92-12.14h4.96l6.05,7.64,6.03-7.64h5.01l-8.94,12.16v7.22h-4.18Z"/>
      <path class="cls-3" d="M99.89,24.73V5.38h15.3c.74,0,1.4.18,2,.54.6.36,1.08.84,1.45,1.45.37.61.55,1.28.55,1.99v5.01c0,.71-.18,1.39-.55,1.99-.37.61-.85,1.09-1.45,1.45-.6.36-1.26.54-2,.54l-11.14.03v6.35h-4.15ZM114.97,14.15v-4.6h-10.93v4.6h10.93ZM114.87,24.73l-5.6-6.7h5.43l4.45,5.28v1.43h-4.29,0Z"/>
      <path class="cls-3" d="M122.05,9.33c0-.74.18-1.4.54-2.01.36-.6.84-1.08,1.45-1.44.61-.36,1.27-.54,1.98-.54h11.33c.74,0,1.4.18,2,.54.6.36,1.08.84,1.45,1.44.37.6.55,1.27.55,2.01v15.4h-4.2v-6.24h-10.93v6.24h-4.16v-15.4ZM137.13,14.29v-4.74h-10.93v4.74h10.93Z"/>
      <path class="cls-3" d="M144.38,24.73V5.35h4.29l10.79,12.92V5.35h4.21v19.38h-4.29l-10.85-12.98v12.98h-4.15,0Z"/>
      <path class="cls-3" d="M170.63,24.73c-.74,0-1.4-.18-2-.54-.6-.36-1.08-.84-1.43-1.44-.36-.6-.53-1.27-.53-2.01v-11.42c0-.74.18-1.4.53-2.01.36-.6.84-1.08,1.43-1.44.6-.36,1.26-.54,2-.54h15.27v4.2h-14.2c-.28,0-.5.08-.65.22-.15.14-.22.37-.22.67v9.21c0,.29.07.5.22.66.15.15.37.23.65.23h14.2v4.2h-15.27Z"/>
      <path class="cls-2" d="M15.05,19.23L0,30.51V0h33.15c1.59,0,3.03.39,4.33,1.17,1.3.77,2.34,1.81,3.13,3.12.52.86.87,1.77,1.05,2.75l-30.4,3.32c-.68.08-1,.87-.58,1.4l4.56,5.65c.45.55.37,1.36-.19,1.81Z"/>
      <path class="cls-2" d="M41.8,11.31v22.06c0,1.55-.4,2.99-1.19,4.32-.79,1.33-1.84,2.38-3.13,3.15-1.3.77-2.73,1.17-4.33,1.17H0v-7.02l30.55-3.33c.68-.08,1-.87.58-1.4l-4.56-5.65c-.45-.55-.37-1.36.19-1.81l15.05-11.47h0Z"/>
    </g>
  </g>
</svg>