<svg width="61" height="61" viewBox="0 0 61 61" fill="none" xmlns="http://www.w3.org/2000/svg">
<path d="M30.7205 0C14.0405 0 0.480469 13.57 0.480469 30.24C0.480469 46.91 14.0505 60.48 30.7205 60.48C47.3905 60.48 60.9605 46.91 60.9605 30.24C60.9605 13.57 47.3905 0 30.7205 0ZM49.4805 49.01C44.6805 53.81 38.0405 56.78 30.7105 56.78C16.0505 56.78 4.17047 44.9 4.17047 30.24C4.17047 22.91 7.14047 16.28 11.9405 11.48C16.7405 6.68 23.3805 3.71 30.7105 3.71C38.0405 3.71 44.6705 6.68 49.4805 11.48C54.2805 16.28 57.2505 22.92 57.2505 30.24C57.2505 37.56 54.2805 44.2 49.4805 49.01Z" fill="#965BA5"/>
<path d="M45.5204 21.5199C45.5204 21.3699 45.5204 21.3599 45.3504 21.3599C44.9604 21.3599 44.5804 21.3199 44.2004 21.2599C43.2304 21.0999 42.3104 20.7799 41.4504 20.2899C41.4104 20.2699 40.9104 19.8699 40.8004 19.7899C39.1004 18.5499 38.0204 16.9099 37.5704 14.8499C37.5504 14.7799 37.3904 13.8199 37.3904 13.4099C37.3904 13.2299 37.3904 13.2299 37.2104 13.2299C37.1704 13.2299 37.1304 13.2299 37.0904 13.2299C35.3404 13.2299 33.5804 13.2299 31.8304 13.2299C31.4804 13.2299 31.5304 13.1899 31.5304 13.5399C31.5304 21.1499 31.5304 28.7499 31.5304 36.3599C31.5304 36.6399 31.5304 36.9299 31.4704 37.1999C31.2104 38.6699 30.4504 39.8199 29.1804 40.6099C28.0704 41.2899 26.8704 41.4899 25.6004 41.2299C25.2004 41.1499 24.8204 40.9999 24.4404 40.8499C24.4104 40.8199 24.3804 40.7899 24.3504 40.7699C24.2204 40.6599 24.0804 40.5799 23.9504 40.4799C22.3304 39.3599 21.5604 37.7899 21.7904 35.8399C22.0304 33.8599 23.1704 32.5199 25.0404 31.8199C25.6004 31.6099 26.1904 31.5299 26.7904 31.5599C27.1804 31.5799 27.5604 31.6299 27.9304 31.7399C28.0604 31.7799 28.1304 31.7399 28.1404 31.5899C28.1404 31.5399 28.1404 31.4899 28.1404 31.4499C28.1404 30.0799 28.1404 28.7199 28.1404 27.3499C28.1404 27.2699 28.1504 27.1799 28.1104 27.1099C28.1104 27.1099 28.0904 27.1099 28.0904 27.0899C28.0904 26.6999 28.0904 26.2999 28.0904 25.9099C28.0904 25.7999 28.0404 25.7799 27.9404 25.7699C27.2304 25.6899 26.5304 25.6699 25.8104 25.7199C24.8304 25.7899 23.8704 25.9899 22.9504 26.3299C21.4704 26.8599 20.1804 27.6799 19.0604 28.7799C18.1004 29.7199 17.3404 30.8099 16.7904 32.0399C16.2604 33.2099 15.9604 34.4499 15.8704 35.7299C15.8304 36.2899 15.8404 36.8499 15.8904 37.3999C15.9604 38.1699 16.1104 38.9299 16.3404 39.6599C17.0104 41.7799 18.2404 43.5199 19.9804 44.8999C20.1604 45.0399 20.3304 45.1899 20.5404 45.2899C20.6304 45.3699 20.7204 45.4499 20.8104 45.5299C21.0904 45.7399 21.3904 45.9199 21.7104 46.0799C23.6604 47.0399 25.7104 47.4299 27.8804 47.1699C30.6904 46.8299 33.0304 45.5799 34.8704 43.4399C36.6004 41.4199 37.4504 39.0499 37.4604 36.4099C37.4804 32.6199 37.4604 28.8299 37.4604 25.0499C37.4604 24.9599 37.4104 24.8299 37.5104 24.7899C37.5904 24.7499 37.6704 24.8599 37.7404 24.9099C39.1504 25.8399 40.6704 26.5099 42.3204 26.8799C43.2804 27.0999 44.2504 27.2299 45.2304 27.2299C45.5404 27.2299 45.5804 27.2099 45.5804 26.9099C45.5804 25.5599 45.5104 21.8899 45.5104 21.5299L45.5204 21.5199Z" fill="#965BA5"/>
<path d="M30.7205 0C14.0405 0 0.480469 13.57 0.480469 30.24C0.480469 46.91 14.0505 60.48 30.7205 60.48C47.3905 60.48 60.9605 46.91 60.9605 30.24C60.9605 13.57 47.3905 0 30.7205 0ZM49.4805 49.01C44.6805 53.81 38.0405 56.78 30.7105 56.78C16.0505 56.78 4.17047 44.9 4.17047 30.24C4.17047 22.91 7.14047 16.28 11.9405 11.48C16.7405 6.68 23.3805 3.71 30.7105 3.71C38.0405 3.71 44.6705 6.68 49.4805 11.48C54.2805 16.28 57.2505 22.92 57.2505 30.24C57.2505 37.56 54.2805 44.2 49.4805 49.01Z" fill="#965BA5"/>
<path d="M45.5204 21.5199C45.5204 21.3699 45.5204 21.3599 45.3504 21.3599C44.9604 21.3599 44.5804 21.3199 44.2004 21.2599C43.2304 21.0999 42.3104 20.7799 41.4504 20.2899C41.4104 20.2699 40.9104 19.8699 40.8004 19.7899C39.1004 18.5499 38.0204 16.9099 37.5704 14.8499C37.5504 14.7799 37.3904 13.8199 37.3904 13.4099C37.3904 13.2299 37.3904 13.2299 37.2104 13.2299C37.1704 13.2299 37.1304 13.2299 37.0904 13.2299C35.3404 13.2299 33.5804 13.2299 31.8304 13.2299C31.4804 13.2299 31.5304 13.1899 31.5304 13.5399C31.5304 21.1499 31.5304 28.7499 31.5304 36.3599C31.5304 36.6399 31.5304 36.9299 31.4704 37.1999C31.2104 38.6699 30.4504 39.8199 29.1804 40.6099C28.0704 41.2899 26.8704 41.4899 25.6004 41.2299C25.2004 41.1499 24.8204 40.9999 24.4404 40.8499C24.4104 40.8199 24.3804 40.7899 24.3504 40.7699C24.2204 40.6599 24.0804 40.5799 23.9504 40.4799C22.3304 39.3599 21.5604 37.7899 21.7904 35.8399C22.0304 33.8599 23.1704 32.5199 25.0404 31.8199C25.6004 31.6099 26.1904 31.5299 26.7904 31.5599C27.1804 31.5799 27.5604 31.6299 27.9304 31.7399C28.0604 31.7799 28.1304 31.7399 28.1404 31.5899C28.1404 31.5399 28.1404 31.4899 28.1404 31.4499C28.1404 30.0799 28.1404 28.7199 28.1404 27.3499C28.1404 27.2699 28.1504 27.1799 28.1104 27.1099C28.1104 27.1099 28.0904 27.1099 28.0904 27.0899C28.0904 26.6999 28.0904 26.2999 28.0904 25.9099C28.0904 25.7999 28.0404 25.7799 27.9404 25.7699C27.2304 25.6899 26.5304 25.6699 25.8104 25.7199C24.8304 25.7899 23.8704 25.9899 22.9504 26.3299C21.4704 26.8599 20.1804 27.6799 19.0604 28.7799C18.1004 29.7199 17.3404 30.8099 16.7904 32.0399C16.2604 33.2099 15.9604 34.4499 15.8704 35.7299C15.8304 36.2899 15.8404 36.8499 15.8904 37.3999C15.9604 38.1699 16.1104 38.9299 16.3404 39.6599C17.0104 41.7799 18.2404 43.5199 19.9804 44.8999C20.1604 45.0399 20.3304 45.1899 20.5404 45.2899C20.6304 45.3699 20.7204 45.4499 20.8104 45.5299C21.0904 45.7399 21.3904 45.9199 21.7104 46.0799C23.6604 47.0399 25.7104 47.4299 27.8804 47.1699C30.6904 46.8299 33.0304 45.5799 34.8704 43.4399C36.6004 41.4199 37.4504 39.0499 37.4604 36.4099C37.4804 32.6199 37.4604 28.8299 37.4604 25.0499C37.4604 24.9599 37.4104 24.8299 37.5104 24.7899C37.5904 24.7499 37.6704 24.8599 37.7404 24.9099C39.1504 25.8399 40.6704 26.5099 42.3204 26.8799C43.2804 27.0999 44.2504 27.2299 45.2304 27.2299C45.5404 27.2299 45.5804 27.2099 45.5804 26.9099C45.5804 25.5599 45.5104 21.8899 45.5104 21.5299L45.5204 21.5199Z" fill="#965BA5"/>
</svg>
